<svg width="24" height="24" viewBox="0 0 24 24" fill="none" xmlns="http://www.w3.org/2000/svg">
  <path d="M12 2C13.1 2 14 2.9 14 4C14 5.1 13.1 6 12 6C10.9 6 10 5.1 10 4C10 2.9 10.9 2 12 2ZM21 9V7L15 6.5V7.5C15 8.3 14.3 9 13.5 9H10.5C9.7 9 9 8.3 9 7.5V6.5L3 7V9L9 8.5V9.5C9 10.3 9.7 11 10.5 11H13.5C14.3 11 15 10.3 15 9.5V8.5L21 9ZM12 12C13.1 12 14 12.9 14 14C14 15.1 13.1 16 12 16C10.9 16 10 15.1 10 14C10 12.9 10.9 12 12 12ZM21 19V17L15 16.5V17.5C15 18.3 14.3 19 13.5 19H10.5C9.7 19 9 18.3 9 17.5V16.5L3 17V19L9 18.5V19.5C9 20.3 9.7 21 10.5 21H13.5C14.3 21 15 20.3 15 19.5V18.5L21 19Z" fill="currentColor"/>
</svg>
